<mxfile host="app.diagrams.net" modified="2023-09-26T17:47:45.453Z" agent="Mozilla/5.0 (Windows NT 10.0; Win64; x64) AppleWebKit/537.36 (KHTML, like Gecko) Chrome/116.0.0.0 Safari/537.36" etag="_6qvuL2fd1azmuexrqf1" version="21.7.2" type="google">
  <diagram name="Страница — 1" id="1O3TE9BcpnR8bCE_kAfM">
    <mxGraphModel grid="1" page="1" gridSize="10" guides="1" tooltips="1" connect="1" arrows="1" fold="1" pageScale="1" pageWidth="827" pageHeight="1169" math="0" shadow="0">
      <root>
        <mxCell id="0" />
        <mxCell id="1" parent="0" />
        <mxCell id="yMyY0vuxrt2l7kiTecjD-1" value="Client" style="html=1;dropTarget=0;whiteSpace=wrap;" vertex="1" parent="1">
          <mxGeometry x="160" y="295" width="120" height="80" as="geometry" />
        </mxCell>
        <mxCell id="yMyY0vuxrt2l7kiTecjD-2" value="" style="shape=module;jettyWidth=8;jettyHeight=4;" vertex="1" parent="yMyY0vuxrt2l7kiTecjD-1">
          <mxGeometry x="1" width="20" height="20" relative="1" as="geometry">
            <mxPoint x="-27" y="7" as="offset" />
          </mxGeometry>
        </mxCell>
        <mxCell id="yMyY0vuxrt2l7kiTecjD-7" value="WEB Server" style="swimlane;whiteSpace=wrap;html=1;startSize=23;" vertex="1" parent="1">
          <mxGeometry x="320" y="270" width="170" height="405" as="geometry" />
        </mxCell>
        <mxCell id="MVFE3-poS_vqI8H-FJQv-21" value="Authentication&lt;br&gt;Service" style="html=1;dropTarget=0;whiteSpace=wrap;" vertex="1" parent="yMyY0vuxrt2l7kiTecjD-7">
          <mxGeometry x="70" y="170" width="120" height="80" as="geometry" />
        </mxCell>
        <mxCell id="MVFE3-poS_vqI8H-FJQv-22" value="" style="shape=module;jettyWidth=8;jettyHeight=4;" vertex="1" parent="MVFE3-poS_vqI8H-FJQv-21">
          <mxGeometry x="1" width="20" height="20" relative="1" as="geometry">
            <mxPoint x="-27" y="7" as="offset" />
          </mxGeometry>
        </mxCell>
        <mxCell id="MVFE3-poS_vqI8H-FJQv-19" value="Authorization Service" style="html=1;dropTarget=0;whiteSpace=wrap;" vertex="1" parent="yMyY0vuxrt2l7kiTecjD-7">
          <mxGeometry x="70" y="40" width="120" height="80" as="geometry" />
        </mxCell>
        <mxCell id="MVFE3-poS_vqI8H-FJQv-20" value="" style="shape=module;jettyWidth=8;jettyHeight=4;" vertex="1" parent="MVFE3-poS_vqI8H-FJQv-19">
          <mxGeometry x="1" width="20" height="20" relative="1" as="geometry">
            <mxPoint x="-27" y="7" as="offset" />
          </mxGeometry>
        </mxCell>
        <mxCell id="MVFE3-poS_vqI8H-FJQv-5" value="Database" style="html=1;dropTarget=0;whiteSpace=wrap;" vertex="1" parent="yMyY0vuxrt2l7kiTecjD-7">
          <mxGeometry x="70" y="310" width="120" height="80" as="geometry" />
        </mxCell>
        <mxCell id="MVFE3-poS_vqI8H-FJQv-6" value="" style="shape=module;jettyWidth=8;jettyHeight=4;" vertex="1" parent="MVFE3-poS_vqI8H-FJQv-5">
          <mxGeometry x="1" width="20" height="20" relative="1" as="geometry">
            <mxPoint x="-27" y="7" as="offset" />
          </mxGeometry>
        </mxCell>
        <mxCell id="yMyY0vuxrt2l7kiTecjD-5" value="" style="whiteSpace=wrap;html=1;aspect=fixed;" vertex="1" parent="yMyY0vuxrt2l7kiTecjD-7">
          <mxGeometry x="-15" y="55" width="20" height="20" as="geometry" />
        </mxCell>
        <mxCell id="MVFE3-poS_vqI8H-FJQv-2" value="" style="rounded=0;orthogonalLoop=1;jettySize=auto;html=1;endArrow=halfCircle;endFill=0;endSize=6;strokeWidth=1;sketch=0;exitX=0.503;exitY=1.034;exitDx=0;exitDy=0;exitPerimeter=0;" edge="1" parent="yMyY0vuxrt2l7kiTecjD-7" target="MVFE3-poS_vqI8H-FJQv-4" source="MVFE3-poS_vqI8H-FJQv-21">
          <mxGeometry relative="1" as="geometry">
            <mxPoint x="150" y="245" as="sourcePoint" />
          </mxGeometry>
        </mxCell>
        <mxCell id="MVFE3-poS_vqI8H-FJQv-3" value="" style="rounded=0;orthogonalLoop=1;jettySize=auto;html=1;endArrow=oval;endFill=0;sketch=0;sourcePerimeterSpacing=0;targetPerimeterSpacing=0;endSize=10;exitX=0.499;exitY=-0.031;exitDx=0;exitDy=0;exitPerimeter=0;" edge="1" parent="yMyY0vuxrt2l7kiTecjD-7" target="MVFE3-poS_vqI8H-FJQv-4" source="MVFE3-poS_vqI8H-FJQv-5">
          <mxGeometry relative="1" as="geometry">
            <mxPoint x="110" y="245" as="sourcePoint" />
          </mxGeometry>
        </mxCell>
        <mxCell id="MVFE3-poS_vqI8H-FJQv-4" value="" style="ellipse;whiteSpace=wrap;html=1;align=center;aspect=fixed;fillColor=none;strokeColor=none;resizable=0;perimeter=centerPerimeter;rotatable=0;allowArrows=0;points=[];outlineConnect=1;" vertex="1" parent="yMyY0vuxrt2l7kiTecjD-7">
          <mxGeometry x="125" y="280" width="10" height="10" as="geometry" />
        </mxCell>
        <mxCell id="yMyY0vuxrt2l7kiTecjD-9" value="" style="rounded=0;orthogonalLoop=1;jettySize=auto;html=1;endArrow=halfCircle;endFill=0;endSize=6;strokeWidth=1;sketch=0;exitX=0.5;exitY=1;exitDx=0;exitDy=0;" edge="1" parent="yMyY0vuxrt2l7kiTecjD-7" source="MVFE3-poS_vqI8H-FJQv-19" target="yMyY0vuxrt2l7kiTecjD-11">
          <mxGeometry relative="1" as="geometry">
            <mxPoint x="155" y="140" as="sourcePoint" />
          </mxGeometry>
        </mxCell>
        <mxCell id="yMyY0vuxrt2l7kiTecjD-10" value="" style="rounded=0;orthogonalLoop=1;jettySize=auto;html=1;endArrow=oval;endFill=0;sketch=0;sourcePerimeterSpacing=0;targetPerimeterSpacing=0;endSize=10;exitX=0.5;exitY=0;exitDx=0;exitDy=0;" edge="1" parent="yMyY0vuxrt2l7kiTecjD-7" source="MVFE3-poS_vqI8H-FJQv-21" target="yMyY0vuxrt2l7kiTecjD-11">
          <mxGeometry relative="1" as="geometry">
            <mxPoint x="155" y="150" as="sourcePoint" />
          </mxGeometry>
        </mxCell>
        <mxCell id="yMyY0vuxrt2l7kiTecjD-11" value="" style="ellipse;whiteSpace=wrap;html=1;align=center;aspect=fixed;fillColor=none;strokeColor=none;resizable=0;perimeter=centerPerimeter;rotatable=0;allowArrows=0;points=[];outlineConnect=1;" vertex="1" parent="yMyY0vuxrt2l7kiTecjD-7">
          <mxGeometry x="125" y="142" width="10" height="10" as="geometry" />
        </mxCell>
        <mxCell id="yMyY0vuxrt2l7kiTecjD-17" value="" style="endArrow=none;html=1;rounded=0;entryX=1;entryY=0.5;entryDx=0;entryDy=0;edgeStyle=orthogonalEdgeStyle;exitX=0.001;exitY=0.329;exitDx=0;exitDy=0;exitPerimeter=0;" edge="1" parent="yMyY0vuxrt2l7kiTecjD-7" source="MVFE3-poS_vqI8H-FJQv-19" target="yMyY0vuxrt2l7kiTecjD-5">
          <mxGeometry width="50" height="50" relative="1" as="geometry">
            <mxPoint x="70" y="65" as="sourcePoint" />
            <mxPoint x="180" y="150" as="targetPoint" />
            <Array as="points">
              <mxPoint x="29" y="66" />
              <mxPoint x="29" y="65" />
            </Array>
          </mxGeometry>
        </mxCell>
        <mxCell id="yMyY0vuxrt2l7kiTecjD-13" value="" style="endArrow=none;html=1;rounded=0;entryX=1;entryY=0.5;entryDx=0;entryDy=0;exitX=0;exitY=0.5;exitDx=0;exitDy=0;edgeStyle=orthogonalEdgeStyle;" edge="1" parent="1" source="yMyY0vuxrt2l7kiTecjD-5" target="yMyY0vuxrt2l7kiTecjD-1">
          <mxGeometry width="50" height="50" relative="1" as="geometry">
            <mxPoint x="400" y="480" as="sourcePoint" />
            <mxPoint x="450" y="430" as="targetPoint" />
          </mxGeometry>
        </mxCell>
      </root>
    </mxGraphModel>
  </diagram>
</mxfile>
